<?xml version="1.0" encoding="utf-8"?>
<!-- Generator: Adobe Illustrator 24.0.0, SVG Export Plug-In . SVG Version: 6.00 Build 0)  -->
<svg version="1.1" id="Layer_1" xmlns="http://www.w3.org/2000/svg" xmlns:xlink="http://www.w3.org/1999/xlink" x="0px" y="0px"
	 viewBox="0 0 373.1 41.11" style="enable-background:new 0 0 373.1 41.11;" xml:space="preserve">
<style type="text/css">
	.st0{fill:#2DABE2;}
	.st1{fill:#40AE49;}
	.st2{fill:#D19F2A;}
	.st3{fill:#C22033;}
	.st4{fill:#2D9A47;}
	.st5{fill:#48773C;}
	.st6{fill:#FDB714;}
	.st7{fill:#EF412A;}
	.st8{fill:#F99D25;}
	.st9{fill:#007DBB;}
	.st10{fill:#8F1838;}
	.st11{fill:#00ADD8;}
	.st12{fill:#F36E24;}
	.st13{fill:#EA1C2D;}
	.st14{fill:#E01A83;}
	.st15{fill:#1A3668;}
	.st16{fill:#CD8B2A;}
	.st17{fill:#00558A;}
	.st18{fill:#FFFFFF;}
</style>
<g>
	<path id="XMLID_18_" class="st0" d="M9.92,13.17c0.47-0.38,1.02-0.84,1.66-1.39c0.23-0.2,0.42-0.38,0.57-0.52
		c0.15-0.14,0.27-0.32,0.37-0.52c0.1-0.2,0.2-0.46,0.31-0.76c0.1-0.3,0.24-0.72,0.42-1.24H13.2C13,9.2,12.74,9.57,12.44,9.83
		c-0.31,0.26-0.64,0.51-1.01,0.76c-0.36,0.25-0.73,0.54-1.09,0.87c-0.37,0.33-0.69,0.79-0.98,1.37v-0.04
		c0.26-0.75,0.46-1.39,0.59-1.91c0.13-0.52,0.25-0.98,0.35-1.37c0.1-0.39,0.23-0.73,0.39-1.02c0.16-0.29,0.41-0.56,0.76-0.83V7.61
		C10.66,7.81,10.02,8.28,9.52,9c-0.5,0.72-0.74,1.53-0.74,2.43v3.04C9.07,13.98,9.45,13.55,9.92,13.17z M11.97,9.46
		c0.41-0.42,0.78-0.85,1.11-1.28c0.33-0.43,0.65-0.85,0.96-1.24c0.3-0.39,0.64-0.75,1.02-1.06l-0.04-0.04
		c-0.26,0.23-0.59,0.41-0.98,0.52c-0.39,0.12-0.8,0.31-1.24,0.57c-0.43,0.26-0.85,0.67-1.26,1.24c-0.41,0.57-0.75,1.4-1.04,2.5
		C11.08,10.28,11.57,9.88,11.97,9.46z M7.1,20.82c0.29,0.43,0.61,0.86,0.97,1.28c0.36,0.42,0.71,0.93,1.06,1.54h0.03
		c-0.04-0.23-0.05-0.46-0.05-0.7v-0.61c0-0.23,0.08-0.61,0.25-1.15c0.17-0.54,0.34-1.13,0.52-1.78c0.18-0.65,0.33-1.31,0.47-1.98
		c0.13-0.67,0.17-1.26,0.11-1.78h-0.04c-0.09,0.38-0.24,0.75-0.46,1.11c-0.22,0.36-0.44,0.74-0.68,1.13
		c-0.23,0.39-0.44,0.81-0.61,1.26C8.48,19.6,8.4,20.08,8.4,20.6c0,0.17,0.03,0.41,0.1,0.72c0.07,0.3,0.1,0.49,0.1,0.54H8.56
		c-0.11-0.64-0.28-1.25-0.49-1.83c-0.21-0.58-0.42-1.12-0.64-1.61c-0.21-0.49-0.39-0.94-0.53-1.35c-0.14-0.41-0.21-0.74-0.21-1
		c0-0.29,0.01-0.52,0.03-0.69c0.02-0.17,0.03-0.39,0.03-0.65H6.7c-0.09,0.23-0.21,0.61-0.35,1.13c-0.14,0.52-0.21,0.99-0.21,1.39
		c0,0.87,0.09,1.57,0.26,2.11C6.58,19.9,6.81,20.39,7.1,20.82z M15.01,32.6c0.14,0.01,0.3,0.02,0.48,0.02
		c0.23,0,0.45-0.01,0.65-0.04c0.2-0.03,0.46-0.07,0.78-0.13c0.32-0.06,0.73-0.15,1.24-0.28c0.51-0.13,1.18-0.3,2.02-0.5
		c-0.55-0.14-1.03-0.28-1.43-0.41c-0.41-0.13-0.81-0.38-1.22-0.76c-0.49-0.43-0.98-0.88-1.48-1.34c-0.38-0.36-0.79-0.69-1.18-1.05
		c-0.11-0.1-0.68-0.6-0.84-0.77l-0.04,0.04c0.07,0.11,0.6,1.18,0.6,1.18s0.08,0.12,0.12,0.18c0.15,0.26,0.29,0.52,0.43,0.78
		c0.06,0.1,0.11,0.21,0.16,0.31c0.17,0.33,0.41,0.61,0.72,0.84c0.37,0.35,0.98,0.65,1.83,0.91v0.04c-0.37-0.06-0.68-0.11-0.93-0.15
		c-0.26-0.04-0.49-0.08-0.7-0.11c-0.21-0.03-0.42-0.05-0.64-0.06c-0.26-0.02-0.53-0.03-0.78-0.07c-0.2-0.03-0.4-0.07-0.61-0.09
		c-0.2-0.02-0.4-0.05-0.6-0.07c-0.1-0.01-0.21-0.02-0.31-0.04c-0.39-0.04-0.76-0.11-1.09-0.2c-0.34-0.09-0.66-0.22-0.98-0.41
		c-0.32-0.19-0.67-0.46-1.05-0.8l-0.04,0.04c0.15,0.26,0.34,0.54,0.59,0.83c0.25,0.29,0.55,0.58,0.92,0.88
		c0.36,0.29,0.79,0.54,1.29,0.75c0.49,0.21,1.06,0.35,1.7,0.44C14.6,32.55,14.87,32.59,15.01,32.6z M8.23,19h0.06
		c0.03-0.26,0.07-0.49,0.13-0.69c0.06-0.2,0.16-0.45,0.32-0.74c0.16-0.29,0.38-0.64,0.67-1.04c0.29-0.41,0.67-0.96,1.16-1.65
		c0.29-0.43,0.52-0.94,0.69-1.52c0.17-0.58,0.29-1,0.34-1.26h-0.04c-0.06,0.14-0.12,0.27-0.19,0.37c-0.07,0.1-0.16,0.22-0.28,0.35
		c-0.12,0.13-0.26,0.28-0.45,0.46c-0.19,0.17-0.44,0.41-0.75,0.7c-0.57,0.52-0.95,1-1.12,1.43c-0.17,0.43-0.31,0.91-0.43,1.43H8.29
		c0.02-0.23,0.03-0.46,0.04-0.67c0.01-0.22,0.01-0.5,0.01-0.85c0-0.43-0.03-0.94-0.08-1.52c-0.05-0.58-0.08-1.33-0.08-2.26
		c0-0.29,0.06-0.57,0.17-0.83c0.11-0.26,0.21-0.51,0.3-0.74H8.6c-0.61,0.78-1.03,1.51-1.25,2.2c-0.22,0.68-0.33,1.35-0.33,2.02
		c0,0.75,0.15,1.51,0.45,2.28C7.77,17.22,8.02,18.07,8.23,19z M12.76,30.25l1.82,0.4l0.94,0.22c-0.34-0.28-0.92-1.22-0.92-1.22
		c-0.2-0.32-0.39-0.72-0.57-1.19c-0.17-0.48-0.42-1.11-0.74-1.89c-0.09-0.26-0.18-0.49-0.28-0.7c-0.1-0.2-0.22-0.41-0.35-0.63
		c-0.13-0.22-0.29-0.46-0.48-0.74c-0.19-0.28-0.43-0.62-0.72-1.02l-0.04,0.04c0.09,0.29,0.21,0.81,0.37,1.56
		c0.16,0.75,0.31,1.46,0.46,2.13c0.09,0.49,0.28,0.95,0.59,1.37c0.3,0.42,0.7,0.85,1.19,1.28l-0.04,0.04
		c-0.2-0.06-0.55-0.29-1.05-0.7c-0.5-0.41-1.02-0.74-1.57-1c-1.11-0.55-1.97-1.04-2.6-1.46c-0.63-0.42-1.1-0.99-1.42-1.72
		l-0.04,0.04c0.18,0.72,0.44,1.38,0.81,1.96c0.36,0.58,0.79,1.09,1.29,1.52c0.5,0.43,1.04,0.8,1.62,1.09
		C11.59,29.93,12.18,30.13,12.76,30.25z M8.69,25.77l3.21,2.13c-0.14-0.29-0.26-0.56-0.36-0.83c-0.1-0.26-0.18-0.55-0.23-0.87
		c-0.06-0.32-0.11-0.67-0.15-1.06c-0.04-0.39-0.09-0.86-0.15-1.41c-0.11-0.95-0.21-1.69-0.3-2.22c-0.09-0.52-0.24-1.09-0.47-1.7
		h-0.04c0,0.49-0.02,0.91-0.07,1.26c-0.04,0.35-0.1,0.67-0.17,0.96c-0.07,0.29-0.13,0.56-0.17,0.8c-0.04,0.25-0.07,0.53-0.07,0.85
		c0,0.32,0.09,0.73,0.28,1.24c0.19,0.51,0.36,0.92,0.53,1.24l-0.04,0.04c-0.49-0.78-0.98-1.43-1.45-1.93
		c-0.48-0.51-0.91-0.97-1.3-1.39c-0.39-0.42-0.72-0.83-1-1.24c-0.27-0.41-0.46-0.91-0.54-1.52c-0.04,0.15-0.06,0.28-0.08,0.41
		c-0.02,0.13-0.03,0.27-0.03,0.41c0,0.49,0.09,0.99,0.26,1.5c0.17,0.51,0.39,0.98,0.65,1.41c0.26,0.43,0.54,0.82,0.85,1.15
		C8.15,25.35,8.43,25.6,8.69,25.77z M35.1,6.94c0.3,0.39,0.62,0.8,0.96,1.24c0.33,0.43,0.7,0.86,1.11,1.28
		c0.41,0.42,0.9,0.82,1.48,1.19c-0.29-1.1-0.64-1.93-1.04-2.5c-0.41-0.57-0.83-0.98-1.26-1.24c-0.43-0.26-0.85-0.45-1.24-0.56
		c-0.39-0.12-0.72-0.29-0.98-0.52l-0.04,0.04C34.46,6.2,34.8,6.55,35.1,6.94z M37.95,30.43c-0.32,0.19-0.65,0.33-0.98,0.41
		c-0.33,0.09-0.7,0.15-1.09,0.2c-0.1,0.01-0.21,0.02-0.31,0.03c-0.2,0.02-0.4,0.05-0.6,0.07c-0.21,0.02-0.41,0.06-0.61,0.09
		c-0.26,0.04-0.52,0.05-0.78,0.07c-0.21,0.01-0.42,0.04-0.64,0.07c-0.21,0.03-0.44,0.07-0.7,0.11c-0.25,0.04-0.57,0.09-0.93,0.15
		v-0.04c0.85-0.26,1.46-0.56,1.83-0.91c0.31-0.23,0.55-0.51,0.72-0.84c0.05-0.1,0.11-0.21,0.16-0.31c0.14-0.26,0.28-0.52,0.43-0.78
		c0.03-0.06,0.12-0.18,0.12-0.18s0.53-1.08,0.6-1.18l-0.04-0.04c-0.16,0.17-0.73,0.67-0.84,0.77c-0.39,0.35-0.79,0.69-1.18,1.05
		c-0.49,0.46-0.98,0.91-1.48,1.34c-0.4,0.37-0.81,0.63-1.22,0.76c-0.4,0.13-0.88,0.27-1.43,0.41c0.84,0.2,1.51,0.37,2.02,0.5
		c0.51,0.13,0.92,0.22,1.24,0.28c0.32,0.06,0.58,0.1,0.78,0.13c0.2,0.03,0.42,0.04,0.65,0.04c0.17,0,0.33-0.01,0.48-0.02
		c0.14-0.01,0.41-0.04,0.41-0.04c0.64-0.09,1.21-0.24,1.7-0.44c0.5-0.21,0.93-0.46,1.29-0.75c0.36-0.29,0.67-0.59,0.92-0.88
		c0.25-0.29,0.44-0.56,0.59-0.83L39,29.62C38.62,29.97,38.27,30.24,37.95,30.43z M40.39,26.76c-0.63,0.42-1.49,0.91-2.6,1.46
		c-0.55,0.26-1.08,0.59-1.57,1c-0.49,0.41-0.84,0.64-1.05,0.7l-0.04-0.04c0.49-0.43,0.89-0.86,1.19-1.28
		c0.3-0.42,0.5-0.88,0.59-1.37c0.14-0.67,0.3-1.37,0.46-2.13c0.16-0.75,0.28-1.28,0.37-1.56l-0.04-0.04
		c-0.29,0.41-0.53,0.75-0.72,1.02c-0.19,0.28-0.35,0.52-0.48,0.74c-0.13,0.22-0.25,0.43-0.35,0.63c-0.1,0.2-0.2,0.43-0.28,0.7
		c-0.32,0.78-0.57,1.41-0.74,1.89c-0.18,0.48-0.36,0.88-0.57,1.19c0,0-0.59,0.94-0.92,1.22l0.94-0.22l1.82-0.4
		c0.58-0.12,1.17-0.32,1.75-0.61c0.58-0.29,1.12-0.65,1.62-1.09c0.5-0.43,0.93-0.94,1.29-1.52c0.36-0.58,0.63-1.23,0.81-1.96
		l-0.04-0.04C41.49,25.77,41.02,26.34,40.39,26.76z M41.71,18.44c-0.21,0.49-0.42,1.03-0.64,1.61c-0.21,0.58-0.37,1.19-0.49,1.83
		h-0.04c0-0.06,0.04-0.24,0.1-0.54c0.07-0.3,0.1-0.54,0.1-0.72c0-0.52-0.09-1.01-0.26-1.46c-0.18-0.45-0.38-0.87-0.61-1.26
		c-0.23-0.39-0.46-0.77-0.68-1.13c-0.22-0.36-0.37-0.73-0.46-1.11h-0.04c-0.06,0.52-0.02,1.12,0.11,1.78
		c0.13,0.67,0.29,1.33,0.47,1.98c0.18,0.65,0.35,1.25,0.52,1.78c0.16,0.54,0.25,0.92,0.25,1.15v0.61c0,0.23-0.02,0.46-0.06,0.69
		h0.03c0.35-0.61,0.7-1.12,1.06-1.54c0.36-0.42,0.69-0.85,0.97-1.28c0.29-0.43,0.52-0.92,0.69-1.46c0.17-0.54,0.26-1.24,0.26-2.11
		c0-0.41-0.07-0.87-0.21-1.39c-0.14-0.52-0.26-0.9-0.35-1.13h-0.05c0,0.26,0.01,0.48,0.03,0.65c0.02,0.17,0.03,0.41,0.03,0.7
		c0,0.26-0.07,0.59-0.21,1C42.09,17.5,41.92,17.94,41.71,18.44z M40.38,15.4c-0.17-0.43-0.54-0.91-1.12-1.43
		c-0.31-0.29-0.57-0.52-0.75-0.7c-0.19-0.17-0.34-0.33-0.45-0.46c-0.11-0.13-0.21-0.25-0.28-0.35c-0.07-0.1-0.14-0.22-0.19-0.37
		h-0.04c0.06,0.26,0.17,0.68,0.34,1.26c0.17,0.58,0.4,1.09,0.69,1.52c0.49,0.7,0.87,1.25,1.16,1.65c0.29,0.41,0.51,0.75,0.67,1.04
		c0.16,0.29,0.27,0.54,0.32,0.74c0.06,0.2,0.1,0.43,0.13,0.7h0.05c0.21-0.93,0.46-1.77,0.76-2.54c0.3-0.77,0.45-1.53,0.45-2.28
		c0-0.67-0.11-1.34-0.33-2.02c-0.22-0.68-0.64-1.41-1.25-2.19H40.5c0.09,0.23,0.19,0.48,0.3,0.74c0.11,0.26,0.17,0.54,0.17,0.83
		c0,0.93-0.03,1.68-0.08,2.26c-0.05,0.58-0.08,1.09-0.08,1.52c0,0.35,0.01,0.63,0.01,0.85c0.01,0.22,0.02,0.44,0.04,0.67h-0.04
		C40.7,16.31,40.56,15.83,40.38,15.4z M38.47,8.49c0.16,0.29,0.29,0.63,0.39,1.02c0.1,0.39,0.22,0.85,0.35,1.37
		c0.13,0.52,0.33,1.16,0.59,1.91v0.04c-0.29-0.58-0.62-1.04-0.98-1.37c-0.36-0.33-0.73-0.62-1.09-0.87c-0.36-0.25-0.7-0.5-1.01-0.76
		c-0.31-0.26-0.56-0.62-0.77-1.09H35.9c0.17,0.52,0.31,0.93,0.42,1.24c0.1,0.3,0.2,0.56,0.31,0.76c0.1,0.2,0.22,0.38,0.37,0.52
		c0.15,0.14,0.34,0.32,0.57,0.52c0.64,0.55,1.2,1.01,1.66,1.39c0.47,0.38,0.85,0.81,1.14,1.3v-3.04c0-0.9-0.25-1.71-0.74-2.43
		c-0.49-0.72-1.13-1.19-1.92-1.39v0.04C38.05,7.92,38.31,8.2,38.47,8.49z M33.44,33.49c-0.26,0-0.5-0.02-0.72-0.06
		c-0.22-0.04-0.49-0.09-0.8-0.15v0.01c-0.26-0.08-0.55-0.18-0.88-0.3c-0.33-0.12-0.73-0.26-1.2-0.44c-0.81-0.29-1.43-0.51-1.86-0.65
		c-0.42-0.14-0.84-0.22-1.24-0.22c-0.38,0-0.8,0.05-1.27,0.15c-0.43,0.09-0.75,0.17-0.95,0.23c-0.18-0.06-0.48-0.13-0.91-0.23
		c-0.46-0.1-0.88-0.15-1.26-0.15c-0.41,0-0.82,0.07-1.24,0.22c-0.42,0.14-1.03,0.36-1.85,0.65c-0.95,0.34-1.66,0.59-2.13,0.73
		c-0.46,0.14-0.94,0.22-1.43,0.22c-0.2,0-0.41-0.01-0.61-0.04c-0.2-0.03-0.38-0.07-0.52-0.13c0,0-0.41-0.12-0.63-0.22
		c-0.23-0.1-0.51-0.23-0.83-0.37l-0.04,0.04c0.46,0.52,1.53,1.17,1.53,1.17c0.8,0.47,1.61,0.7,2.41,0.7c0.35,0,0.66-0.02,0.93-0.07
		c0.27-0.04,0.55-0.12,0.82-0.24c0.27-0.11,0.58-0.26,0.91-0.43c0.33-0.17,0.73-0.4,1.19-0.69c0.49-0.32,0.9-0.57,1.24-0.76
		c0.33-0.19,0.72-0.28,1.15-0.28c0.17,0,0.35,0.03,0.52,0.09c-0.58,0.32-1.24,0.7-1.98,1.14c-0.74,0.45-1.46,1.04-2.15,1.79
		l0.74,0.65c0.64-0.75,1.35-1.45,2.13-2.08c0.76-0.62,1.43-1.03,2-1.24c0.57,0.21,1.24,0.62,2.02,1.24c0.8,0.64,1.51,1.33,2.15,2.08
		l0.74-0.65c-0.7-0.75-1.42-1.34-2.17-1.79c-0.75-0.45-1.42-0.83-2-1.14c0.23-0.06,0.42-0.09,0.57-0.09c0.44,0,0.82,0.09,1.16,0.28
		c0.33,0.19,0.75,0.44,1.24,0.76c0.44,0.26,0.81,0.48,1.13,0.67c0.32,0.19,0.62,0.33,0.89,0.43c0.28,0.1,0.55,0.18,0.81,0.24
		c0.26,0.06,0.54,0.08,0.85,0.09v0h0.17c0.61,0,1.27-0.14,1.98-0.43c0.71-0.29,1.36-0.77,1.94-1.43v-0.04
		c-0.61,0.28-1.09,0.48-1.44,0.59C34.22,33.43,33.84,33.49,33.44,33.49z M43.05,20.88c0-0.05,0-0.09,0-0.13
		c0-0.07-0.01-0.14-0.02-0.2c-0.02-0.13-0.05-0.27-0.08-0.41c-0.09,0.61-0.27,1.12-0.54,1.52c-0.27,0.41-0.61,0.82-0.99,1.24
		c-0.02,0.02-0.05,0.05-0.07,0.08c-0.37,0.4-0.78,0.84-1.24,1.32c-0.47,0.5-0.95,1.13-1.43,1.9l-0.01-0.01
		c0.17-0.32,0.34-0.73,0.51-1.24c0.17-0.51,0.26-0.92,0.26-1.24c0-0.32-0.02-0.6-0.07-0.85c-0.04-0.25-0.09-0.51-0.15-0.8
		c-0.06-0.29-0.11-0.61-0.15-0.96c-0.04-0.35-0.06-0.77-0.06-1.26h-0.04c0,0.01-0.01,0.02-0.01,0.03c0-0.01,0-0.02,0-0.03h-0.04
		c-0.23,0.61-0.38,1.17-0.47,1.7c-0.08,0.52-0.18,1.26-0.3,2.21c-0.06,0.55-0.11,1.02-0.15,1.41c-0.04,0.39-0.09,0.75-0.15,1.06
		c-0.06,0.32-0.13,0.61-0.23,0.87c-0.09,0.22-0.19,0.46-0.3,0.7c-0.02,0.04-0.04,0.08-0.07,0.12l0.02-0.01c0,0.01,0,0.01-0.01,0.01
		l1.08-0.71l2.17-1.42c0.26-0.17,0.54-0.43,0.85-0.76c0.3-0.33,0.58-0.72,0.83-1.15c0.15-0.27,0.29-0.55,0.41-0.85
		c0.08-0.18,0.15-0.37,0.22-0.56c0.17-0.51,0.26-1.01,0.26-1.5c0,0,0,0,0,0v0C43.05,20.93,43.05,20.9,43.05,20.88z M30.41,8.08
		c0.07,0.03,0.15,0.07,0.23,0.13c0.06,0.06,0.1,0.12,0.15,0.17c0.04,0.06,0.09,0.09,0.15,0.09c0.08,0,0.13-0.03,0.13-0.09
		c0-0.06-0.01-0.08-0.02-0.06c-0.01,0.01-0.02-0.01-0.02-0.06c0-0.12-0.03-0.2-0.08-0.26c-0.11-0.12-0.24-0.14-0.38-0.09
		c-0.03-0.03-0.06-0.04-0.08-0.04h-0.04c-0.08,0-0.13,0.03-0.13,0.09C30.3,8.01,30.34,8.05,30.41,8.08z M25.8,7.04h0.09
		c0.23-0.07,0.41-0.11,0.52-0.11h0.61c0.12,0,0.2-0.04,0.26-0.11c0.06-0.07,0.1-0.14,0.13-0.2c-0.15-0.18-0.32-0.28-0.52-0.31
		c-0.2-0.03-0.35-0.04-0.44-0.04c-0.06,0-0.23,0.05-0.52,0.16c-0.29,0.11-0.47,0.17-0.52,0.2c-0.15-0.03-0.23,0-0.26,0.09
		c0.06,0.06,0.14,0.13,0.24,0.2C25.49,7,25.63,7.04,25.8,7.04z M24.49,30.85c7.23,0,13.11-5.88,13.11-13.11
		c0-7.23-5.88-13.11-13.11-13.11c-7.23,0-13.11,5.88-13.11,13.11C11.38,24.97,17.26,30.85,24.49,30.85z M12.05,18.07h1.99
		c0.03,0.89,0.17,1.76,0.41,2.58c-0.06-0.01-0.11-0.04-0.15-0.11l-0.06-0.06l-0.22-0.31l-0.36,0.13c0,0.2-0.07,0.28-0.22,0.22
		c-0.06-0.06-0.12-0.09-0.18-0.09c-0.23,0-0.37,0.12-0.42,0.37c-0.04,0.25-0.07,0.42-0.07,0.5l0.31,0.79
		c0.06,0.09,0.15,0.1,0.26,0.04c0.12,0.15,0.2,0.25,0.26,0.31c0.06,0.06,0.13,0.09,0.22,0.09c0.09,0,0.14-0.04,0.14-0.13h0.05
		c0.06,0.06,0.12,0.12,0.18,0.2c0.06,0.07,0.14,0.14,0.23,0.2v-0.04c0.11,0.1,0.23,0.16,0.37,0.16c0.06,0.21,0.14,0.37,0.26,0.48
		c0.12,0.12,0.23,0.18,0.35,0.18c0.06,0,0.12-0.03,0.17-0.09c0.09,0.24,0.16,0.38,0.22,0.44c0.06,0.03,0.13,0.07,0.22,0.13
		c0.09,0.06,0.15,0.1,0.17,0.13h0.09c0,0,0,0,0,0c0.03,0.12,0.1,0.23,0.22,0.35c0.09,0.09,0.17,0.16,0.26,0.22
		c-0.01,0-0.02,0.01-0.03,0.01c0.01,0,0.02,0.01,0.02,0.01c0.01,0,0.02,0,0.03,0c0.03,0.03,0.06,0.07,0.09,0.1l-1.41,1.41
		C13.42,24.14,12.13,21.25,12.05,18.07z M21.66,14.39c-0.04-0.03-0.08-0.05-0.11-0.07l-0.13-0.13c0.75-0.65,1.7-1.07,2.75-1.14v1.39
		c-0.02-0.02-0.04-0.02-0.06-0.03c-0.01-0.01-0.02-0.03-0.03-0.04c0,0-0.01,0-0.02-0.01c-0.01-0.01-0.05-0.02-0.1-0.02
		c-0.02,0-0.03,0.01-0.05,0.01c0,0-0.01,0-0.01-0.01c-0.03,0-0.07,0.01-0.1,0.01c-0.04,0.01-0.08,0.02-0.1,0.02
		c-0.02,0-0.04,0-0.05-0.01c-0.04-0.03-0.06-0.09-0.06-0.2c0,0,0,0-0.01,0l0-0.01c-0.12,0.06-0.18,0.12-0.2,0.17
		c-0.01,0.06-0.04,0.16-0.07,0.3c-0.03,0.12-0.1,0.2-0.22,0.24c-0.12,0.04-0.21,0.09-0.26,0.15l-0.13-0.09h-0.22
		c-0.06-0.06-0.1-0.09-0.13-0.11c-0.03-0.01-0.06-0.04-0.09-0.07c-0.03-0.03-0.04-0.03-0.04,0c-0.06,0-0.1,0.03-0.12,0.1l-0.13-0.13
		l0.04-0.01v-0.09C21.93,14.57,21.82,14.49,21.66,14.39z M20.94,13.72l-1.34-1.34c1.22-1.11,2.81-1.81,4.56-1.89v1.89
		C22.93,12.46,21.81,12.95,20.94,13.72z M21.69,20.03c0.07-0.07,0.04-0.2,0.06-0.28l-0.15,0.14c0.14-0.14,0.23-0.25,0.26-0.33
		c0.03-0.07,0.07-0.15,0.13-0.24c0,0,0,0,0.01,0c0.05,0.09,0.1,0.19,0.16,0.27l-1.22,1.22c-0.48-0.56-0.84-1.23-1.02-1.97
		c0.11,0.01,0.21,0.04,0.3,0.09c0.04,0.02,0.28,0.25,0.28,0.25c0.06,0,0.12-0.01,0.18-0.04l0.18,0.13c0,0.12,0.01,0.19,0.04,0.22
		c0,0.03,0.04,0.07,0.13,0.11c0.09,0.04,0.15,0.09,0.18,0.15l0.09-0.04c0-0.03-0.01-0.09-0.02-0.17c-0.01-0.09-0.01-0.13,0.02-0.13
		l0.09,0.31l0.09,0.35l-0.01,0.01C21.56,20.08,21.64,20.08,21.69,20.03z M24.3,21.42c0.07,0.07,0.11,0.12,0.11,0.15
		c0,0.09-0.12,0.13-0.35,0.13c-0.09,0-0.15,0.08-0.18,0.25c-0.03,0.17-0.06,0.3-0.09,0.42c-0.02,0-0.05-0.01-0.07-0.01
		c0,0.01,0.01,0.01,0.01,0.02c-0.88-0.14-1.68-0.52-2.32-1.08l1.18-1.18c0.44,0.42,1.01,0.7,1.65,0.76c0,0.1,0.02,0.16,0.04,0.18
		c-0.06,0.06-0.09,0.13-0.09,0.22C24.19,21.3,24.23,21.35,24.3,21.42z M18.49,21.5c-0.03-0.38-0.06-0.63-0.09-0.74
		c-0.03-0.12-0.07-0.25-0.13-0.39c-0.03-0.26-0.08-0.46-0.14-0.59c-0.06-0.13-0.2-0.31-0.41-0.54v-0.25c0-0.03-0.03-0.11-0.09-0.26
		v-0.04c0-0.06,0.02-0.1,0.07-0.11c0.05-0.01,0.2-0.07,0.46-0.16c0-0.21,0.01-0.34,0.05-0.4l0.32,0.06c0.09,0,0.13-0.06,0.13-0.18
		c0-0.03-0.03-0.12-0.09-0.27c-0.06-0.15-0.09-0.26-0.09-0.32c0-0.06,0.04-0.11,0.13-0.16c0.09-0.04,0.17-0.07,0.26-0.07
		c0.14,0,0.25,0.05,0.3,0.15c0.06,0.1,0.09,0.21,0.09,0.32c0,0.09-0.01,0.16-0.02,0.24c-0.01,0.07-0.02,0.14-0.02,0.19l0.09,0.04
		c-0.06,0.29-0.17,0.43-0.35,0.43c-0.09,0-0.15-0.04-0.2-0.11c-0.04-0.07-0.09-0.11-0.15-0.11c-0.03,0-0.04,0.01-0.04,0.04
		c0,0.06,0.01,0.12,0.04,0.18c0.03,0.06,0.04,0.13,0.04,0.22c0,0.21-0.09,0.28-0.28,0.22c-0.06,0.11,0,0.17,0.18,0.17
		c0.06,0.18,0.12,0.25,0.18,0.22c0.03-0.03,0.06-0.13,0.09-0.3c0.03-0.17,0.06-0.28,0.09-0.34l0.05,0.04l0.18-0.04
		c0,0.02,0.01,0.04,0.01,0.07c0.02,0,0.04,0,0.05,0c0.18,0.98,0.62,1.87,1.26,2.58l-1.85,1.85c-0.08-0.08-0.13-0.18-0.1-0.29
		c0.04-0.18,0.22-0.29,0.24-0.47c0-0.01,0.04-0.35,0.04-0.35C18.6,21.73,18.49,21.56,18.49,21.5z M17.43,18.77
		c0.03,0.06,0.04,0.12,0.04,0.17c0,0.09-0.03,0.12-0.09,0.11c-0.01,0-0.02,0-0.03,0c-0.06-0.32-0.1-0.65-0.11-0.99h0.36
		c-0.01,0.07-0.02,0.13-0.04,0.18c-0.03,0.06-0.07,0.12-0.11,0.17c-0.04,0.06-0.07,0.12-0.07,0.17
		C17.39,18.65,17.4,18.71,17.43,18.77z M17.24,17.41c0.08-1.75,0.78-3.34,1.89-4.56l1.34,1.34c-0.01,0.01-0.02,0.03-0.04,0.04
		c-0.08,0.02-0.16,0.05-0.23,0.08c-0.06,0.07-0.12,0.15-0.19,0.26c-0.2,0.09-0.34,0.16-0.41,0.22c-0.07,0.06-0.18,0.17-0.33,0.35
		c-0.18,0.09-0.28,0.14-0.33,0.15c-0.04,0.01-0.09,0.05-0.15,0.11c0.06,0.15,0.06,0.23,0,0.24c-0.06,0.02-0.2,0.05-0.44,0.11
		c-0.03,0-0.06,0.01-0.09,0.04l-0.13,0.13c-0.03,0.06-0.04,0.11-0.04,0.15c0,0.04-0.01,0.09-0.04,0.15
		c-0.09,0.06-0.16,0.13-0.22,0.22c-0.05,0.12-0.05,0.25,0,0.39l0.05,0.44c0,0-0.01,0-0.02,0c0.02,0.04,0.03,0.09,0.04,0.13H17.24z
		 M20.94,21.76c0.65,0.58,1.45,1,2.33,1.2c-0.06,0.02-0.13,0.04-0.19,0.06c-0.15,0.04-0.23,0.14-0.26,0.29
		c-0.03,0.18-0.09,0.29-0.2,0.33c-0.1,0.04-0.14,0.11-0.11,0.2c0.15,0.15,0.25,0.32,0.31,0.53c0.06,0.21,0.2,0.34,0.44,0.4
		l0.26,0.09c0.08,0,0.16,0.03,0.26,0.1c0.08,0.01,0.15,0.02,0.23,0.04c-1.69-0.11-3.22-0.81-4.4-1.88L20.94,21.76z M19.13,11.91
		l-1.32-1.32c1.68-1.57,3.9-2.55,6.35-2.63v1.87C22.22,9.91,20.47,10.68,19.13,11.91z M18.67,12.38c-1.23,1.34-2.01,3.09-2.09,5.03
		h-1.87c0.08-2.45,1.07-4.68,2.63-6.35L18.67,12.38z M16.58,18.07c0.01,0.33,0.05,0.65,0.1,0.97c-0.02-0.04-0.05-0.08-0.07-0.13
		c-0.1-0.14-0.19-0.21-0.26-0.21c-0.09,0-0.15,0.04-0.18,0.11c-0.03,0.07-0.07,0.14-0.13,0.2c-0.24,0.15-0.4,0.22-0.48,0.22
		c-0.12,0.12-0.21,0.29-0.26,0.52c-0.03,0.06-0.02,0.12,0.02,0.18c0.04,0.06,0.02,0.12-0.07,0.17c0.06,0.12,0.07,0.19,0.04,0.22
		c0.03,0.06,0.02,0.08-0.02,0.07c-0.04-0.01-0.08-0.01-0.11,0.02c-0.03,0.03-0.05,0.06-0.06,0.1c-0.23-0.77-0.36-1.59-0.39-2.43
		H16.58z M24.16,30.18c-3.18-0.08-6.07-1.37-8.23-3.41l1.41-1.41c1.8,1.69,4.19,2.75,6.82,2.83V30.18z M24.16,27.52
		c-2.44-0.08-4.65-1.06-6.32-2.61c0.13,0.06,0.25,0.1,0.36,0.1c0.09,0,0.2-0.03,0.35-0.09c0.15-0.06,0.28-0.12,0.39-0.18
		c0.17,0,0.31-0.03,0.39-0.09c0.12,0.03,0.22,0.03,0.33,0c0.1-0.03,0.15-0.1,0.15-0.22c0-0.09-0.05-0.17-0.15-0.24
		c-0.1-0.07-0.16-0.14-0.16-0.2c0-0.03-0.03-0.07-0.09-0.11c-0.05-0.03-0.14-0.14-0.28-0.31l0,0c1.34,1.23,3.09,2,5.03,2.08V27.52z
		 M24.51,22.66v-0.01c-0.21,0-0.36-0.02-0.43-0.07c-0.01-0.04-0.03-0.07-0.04-0.11c0.04-0.03,0.1-0.07,0.2-0.14
		c0.12-0.07,0.21-0.11,0.27-0.11l0-0.11l0.32-0.24c0.06-0.03,0.1-0.04,0.11-0.04c0.01,0,0.1-0.03,0.25-0.09
		c0.03,0,0.14,0.05,0.34,0.15c0.19,0.1,0.31,0.15,0.34,0.15l0.04-0.18c0.06,0,0.15,0.06,0.26,0.18c0.06,0,0.13-0.03,0.22-0.09
		c0.03-0.09,0.03-0.16,0-0.22c0.03,0,0.07,0.01,0.13,0.04c0.03,0,0.05,0.01,0.06,0.02c0.02,0.01,0.04,0.02,0.07,0.02h0.04
		c0.06,0,0.14-0.04,0.24-0.11c0.1-0.07,0.18-0.12,0.24-0.15c0.03-0.03,0.06-0.03,0.09,0c0.03,0.03,0.04,0.09,0.04,0.17
		c0,0.23-0.12,0.41-0.37,0.52c-0.25,0.12-0.46,0.2-0.63,0.26c-0.03,0.03-0.07,0.09-0.11,0.2c-0.04,0.1-0.09,0.15-0.15,0.15
		c-0.12,0-0.3-0.03-0.54-0.09c-0.03-0.03-0.08-0.12-0.14-0.26c-0.09,0-0.19,0.01-0.31,0.04l-0.36,0.09
		C24.63,22.66,24.57,22.66,24.51,22.66z M26.4,21.22c0.03-0.14,0.1-0.24,0.22-0.28c0.12-0.04,0.23-0.07,0.35-0.07
		c0,0.09-0.08,0.18-0.24,0.26c-0.16,0.09-0.25,0.13-0.28,0.13L26.4,21.22z M27.75,20.15c0.12,0.07,0.17,0.18,0.17,0.33
		c0,0.12-0.06,0.17-0.17,0.17c-0.09,0-0.16-0.1-0.22-0.31c-0.2-0.06-0.32-0.15-0.35-0.28c-0.03-0.13-0.01-0.21,0.04-0.24
		c0.06-0.03,0.12-0.05,0.17-0.06c0.06-0.02,0.07,0.05,0.04,0.2C27.54,20.01,27.64,20.07,27.75,20.15z M31.96,12.82
		c0.03,0,0.06,0.01,0.09,0.04c0.12,0,0.22,0.03,0.31,0.09c0.09,0.06,0.26,0.28,0.53,0.65c0.03,0,0.07,0.04,0.11,0.13
		c0.04,0.09,0.1,0.13,0.15,0.13c0.05,0,0.13-0.03,0.23-0.07c0.01-0.04,0.02-0.08,0.03-0.12c0.52,1.14,0.83,2.4,0.88,3.73h-1.85
		c0-0.01,0.01-0.02,0.01-0.03c0.03-0.17-0.04-0.33-0.1-0.49c-0.09-0.24-0.12-0.4-0.06-0.64c0.04-0.19,0.05-0.31,0.02-0.37
		c-0.09,0-0.15,0.01-0.18,0.04c-0.03,0.03-0.07,0.1-0.11,0.2c-0.04,0.1-0.08,0.18-0.11,0.24v0.02c-0.02,0.04-0.03,0.07-0.03,0.08
		c0,0.01-0.02,0.05-0.04,0.11c-0.03,0.12-0.06,0.23-0.09,0.35c-0.03,0.1-0.03,0.22,0,0.35c0,0,0,0,0,0.01
		c0,0.04,0.01,0.09,0.01,0.13H30.8c0.06-0.06,0.12-0.1,0.2-0.13h-0.03l0.26-0.13c-0.06-0.03-0.09-0.07-0.09-0.13
		c0-0.09,0.01-0.14,0.04-0.15c0.03-0.01,0.11-0.05,0.25-0.11c0.06-0.06,0.13-0.19,0.23-0.41c0.11-0.24,0.34-0.59,0.34-0.87
		c0-0.07-0.09-0.15-0.1-0.23c-0.01-0.06,0.02-0.12,0.02-0.19c0.01-0.31,0.14-0.84-0.25-0.93c-0.03,0-0.05-0.04-0.05-0.13
		c0.09-0.06,0.12-0.17,0.09-0.33h-0.27c0-0.03,0.02-0.08,0.07-0.15c0.04-0.07,0.07-0.14,0.07-0.2c0-0.09-0.04-0.13-0.13-0.13
		c-0.09,0-0.17,0.02-0.22,0.04c-0.06,0.03-0.11,0.04-0.13,0.04c-0.03,0-0.05,0-0.07-0.01c-0.02-0.03-0.05-0.06-0.07-0.09
		c0-0.14-0.07-0.28-0.19-0.43c-0.12-0.14-0.24-0.22-0.35-0.26c0-0.01-0.01-0.01-0.01-0.02c0.02-0.07,0.02-0.13,0-0.19l0.37-0.37
		l0.53,0.19c0,0.15,0.05,0.25,0.14,0.3c0.03,0.03,0.09,0.07,0.18,0.13c0.08,0.05,0.15,0.11,0.21,0.16v0.02
		C31.89,12.8,31.93,12.82,31.96,12.82z M30.16,25.51c-0.03-0.03-0.07-0.04-0.11-0.04c-0.04,0-0.07-0.03-0.07-0.09
		c0-0.06,0.04-0.12,0.13-0.17c0.09-0.06,0.16-0.16,0.22-0.3c0.06-0.12,0.09-0.2,0.09-0.26c0-0.06-0.02-0.09-0.07-0.11
		c-0.04-0.01-0.1-0.05-0.15-0.11c-0.06-0.03-0.12-0.06-0.2-0.09c-0.07-0.03-0.15-0.07-0.24-0.13c-0.09-0.06-0.13-0.13-0.13-0.22
		c0-0.03,0.02-0.1,0.06-0.22c0.01-0.04,0.03-0.08,0.05-0.12c0.03-0.03,0.07-0.06,0.1-0.09l1.01,1.01c0,0.12,0.07,0.18,0.2,0.2
		l0.11,0.11c-0.35,0.33-0.73,0.63-1.13,0.91c0.02-0.04,0.04-0.08,0.07-0.12c0.01-0.01,0.03-0.02,0.05-0.03
		C30.18,25.59,30.18,25.54,30.16,25.51z M29.55,20.71c-0.09-0.03-0.18-0.01-0.27,0.04c-0.12,0.03-0.21,0.11-0.27,0.26
		c0,0.03-0.01,0.04-0.04,0.04c-0.06,0-0.12,0.02-0.17,0.04c-0.09,0.03-0.16,0.06-0.22,0.09c-0.09,0-0.13-0.03-0.13-0.09
		c0-0.09,0.13-0.15,0.39-0.17c0.12-0.14,0.19-0.23,0.22-0.26c0.03-0.03,0.09-0.06,0.2-0.09c0.11-0.06,0.22-0.16,0.33-0.32
		c0.11-0.16,0.16-0.25,0.16-0.28h0.04c0,0.14,0.06,0.21,0.18,0.21c0.09,0,0.17-0.1,0.23-0.3c0.18,0.06,0.3,0.09,0.37,0.09
		c0.15,0,0.26-0.05,0.32-0.17h0.55c0,0.01-0.01,0.03-0.01,0.04c0,0.01-0.01,0.02-0.01,0.04h0c-0.3,0.97-0.81,1.86-1.46,2.61
		c-0.01-0.04-0.01-0.09-0.01-0.13c-0.01,0.01-0.13-0.4-0.16-0.4c-0.05,0-0.12,0.1-0.21,0.31c-0.08,0.2-0.14,0.33-0.17,0.39
		l-0.44,0.09c-0.12,0.03-0.25,0.04-0.39,0.04c-0.06,0-0.18-0.05-0.37-0.15c-0.19-0.1-0.31-0.15-0.37-0.15
		c-0.09-0.03-0.21-0.06-0.37-0.09c-0.16-0.03-0.24-0.07-0.24-0.13c0-0.09,0.06-0.13,0.17-0.13c0.06,0,0.17,0.02,0.35,0.07
		c0.17,0.04,0.35,0.09,0.52,0.13c0.17,0.04,0.33,0.09,0.48,0.13c0.15,0.04,0.23,0.06,0.26,0.06l0.26-0.09
		c0-0.06,0.03-0.14,0.09-0.24c0.06-0.1,0.09-0.18,0.09-0.24c0.06-0.12,0.11-0.28,0.16-0.48c0.05-0.2,0.07-0.38,0.07-0.52
		C29.69,20.83,29.64,20.74,29.55,20.71z M30.71,18.07h1.03c-0.02,0.44-0.08,0.86-0.17,1.28c-0.09-0.2-0.16-0.33-0.22-0.39
		c-0.06-0.06-0.18-0.17-0.35-0.35c-0.03-0.15-0.05-0.25-0.07-0.31c-0.01-0.03-0.03-0.06-0.06-0.1
		C30.81,18.16,30.75,18.12,30.71,18.07z M31.13,23.41c-0.09,0-0.13,0.02-0.13,0.07c0,0.04-0.01,0.13-0.04,0.27l-0.65-0.65
		c0.87-0.95,1.51-2.11,1.84-3.39c0.01-0.01,0.02-0.02,0.03-0.03c0.15,0.06,0.24,0.06,0.29,0c0.04-0.06,0.07-0.1,0.07-0.13
		c0-0.09-0.07-0.2-0.22-0.35h-0.06c0.07-0.37,0.11-0.75,0.13-1.14h1.87c-0.08,2.45-1.07,4.68-2.63,6.35l-0.08-0.08
		c0,0,0-0.01,0-0.02c-0.03-0.2-0.06-0.4-0.1-0.59C31.42,23.52,31.31,23.41,31.13,23.41z M30.67,13.95c0,0,0,0.01,0,0.01
		c0,0.06-0.01,0.13-0.04,0.22c-0.03,0.09-0.06,0.16-0.09,0.22c0.03,0.06,0.14,0.16,0.35,0.31c0.2,0.15,0.33,0.25,0.39,0.31
		c0.06,0.09,0.12,0.26,0.2,0.5c0.07,0.25,0.11,0.4,0.11,0.46c-0.03,0.12-0.07,0.22-0.13,0.31c-0.12,0.18-0.26,0.26-0.44,0.26
		l-0.04-0.04c0-0.06,0.03-0.14,0.09-0.26c0.06-0.11,0.09-0.2,0.09-0.26c0.12-0.09,0.17-0.17,0.17-0.26
		c-0.06-0.03-0.1-0.05-0.13-0.06c-0.03-0.01-0.1-0.08-0.22-0.19c0-0.09-0.09-0.13-0.26-0.13c-0.09,0-0.16,0.02-0.22,0.07
		c-0.06,0.04-0.13,0.09-0.22,0.15l-0.09-0.17c0.03-0.06,0.04-0.12,0.04-0.18l-0.35-0.58c-0.09-0.06-0.25-0.11-0.48-0.15
		c-0.14-0.03-0.23-0.01-0.35,0.01c-0.14,0.03-0.2,0-0.34-0.02c-0.14-0.02-0.23,0.03-0.35,0.11c-0.11,0.08-0.2,0.18-0.29,0.28
		c-0.04,0.05,0.02,0.12-0.11,0.1c-0.01,0-0.06-0.06-0.11-0.11l1.98-1.98c0.02,0.03,0.03,0.05,0.05,0.06
		c0.03,0.03,0.09,0.09,0.17,0.2c0.06,0.07,0.12,0.15,0.19,0.23C30.4,13.54,30.54,13.74,30.67,13.95z M25.92,27.03
		c0.17,0.13,0.35,0.23,0.56,0.29c-0.54,0.11-1.09,0.18-1.66,0.2v-1.87h0c0.1,0.14,0.2,0.24,0.28,0.3c0.06,0.03,0.19,0.05,0.38,0.06
		c0.2,0.01,0.29,0.05,0.29,0.11c0,0.06-0.02,0.12-0.07,0.2c-0.04,0.07-0.07,0.14-0.07,0.2C25.65,26.71,25.74,26.89,25.92,27.03z
		 M24.82,30.18v-1.99c0.74-0.02,1.47-0.13,2.16-0.3C26.99,27.9,27,27.91,27,27.93c0.01,0.02,0.01,0.04,0.01,0.06
		c0.23,0.17,0.38,0.31,0.44,0.41c0.06,0.12,0.22,0.17,0.48,0.17c0.15,0,0.24-0.03,0.28-0.09c0.04-0.06,0.09-0.12,0.15-0.17
		c0.06-0.06,0.13-0.1,0.22-0.13c0.09-0.03,0.15-0.07,0.17-0.13c0.15-0.06,0.25-0.15,0.31-0.26c0.12-0.09,0.2-0.2,0.26-0.35
		c0.06,0,0.12-0.04,0.17-0.11c0.06-0.07,0.12-0.22,0.17-0.46c0.03-0.01,0.05-0.03,0.08-0.04c0-0.02,0.01-0.04,0.01-0.07
		c0.68-0.4,1.31-0.87,1.88-1.41l1.41,1.41C30.89,28.81,28,30.09,24.82,30.18z M33.52,26.3l-1.41-1.41c1.69-1.8,2.75-4.19,2.83-6.82
		h1.99C36.84,21.25,35.56,24.14,33.52,26.3z M36.93,17.41h-1.99c-0.07-2.18-0.81-4.19-2.01-5.83c-0.02-0.06-0.05-0.12-0.1-0.18
		c-0.03-0.04-0.07-0.07-0.11-0.1c-0.16-0.21-0.33-0.41-0.51-0.6c-0.02-0.05-0.04-0.09-0.05-0.14l1.37-1.37
		C35.56,11.34,36.84,14.22,36.93,17.41z M24.82,5.3c3.18,0.08,6.07,1.37,8.23,3.41l-1.21,1.21c-0.03-0.06-0.05-0.12-0.07-0.18
		c-0.1-0.09-0.16-0.14-0.18-0.14c-0.12-0.06-0.18-0.15-0.2-0.28c-0.01-0.13-0.05-0.22-0.11-0.28c-0.18-0.06-0.32-0.19-0.44-0.38
		c-0.12-0.2-0.23-0.3-0.35-0.3c-0.06,0.03-0.15,0.02-0.29-0.03c-0.13-0.05-0.23-0.08-0.29-0.08c-0.12,0-0.22,0.01-0.31,0.04
		c-0.09,0.03-0.2,0.06-0.34,0.09c-0.02,0.01-0.03,0.03-0.04,0.04c-1.29-0.66-2.73-1.06-4.26-1.13c0.12-0.18,0.13-0.3,0.04-0.36
		c-0.02-0.02-0.09,0.01-0.19,0.11V5.3z M24.82,7.95c1.46,0.05,2.83,0.42,4.06,1.04c0,0.01,0,0.02-0.01,0.03
		c0.05,0.05,0.11,0.12,0.17,0.19c0.07,0.09,0.12,0.14,0.15,0.17c0.06,0.2,0.1,0.33,0.13,0.39c0.03,0.06,0.07,0.13,0.13,0.21
		c-0.03,0.12-0.01,0.24,0.07,0.37c0.07,0.13,0.15,0.25,0.24,0.37c0.03,0,0.09-0.01,0.17-0.02c0.09-0.01,0.16-0.02,0.22-0.02
		c0.06,0,0.12,0.04,0.2,0.13c0.07,0.09,0.12,0.18,0.15,0.26c0.01,0.03,0.03,0.08,0.04,0.14l-0.54,0.54c0,0,0,0,0,0
		c-0.11-0.41-0.2-0.65-0.26-0.72c-0.06-0.07-0.17-0.11-0.34-0.11c-0.03-0.03-0.13-0.15-0.3-0.38c-0.17-0.22-0.27-0.33-0.3-0.33
		c-0.06,0-0.1,0.01-0.13,0.04c0.03,0.06,0.06,0.11,0.09,0.16c0.03,0.04,0.09,0.14,0.17,0.29c0,0.06-0.03,0.09-0.09,0.09
		c0.03,0.12,0.1,0.19,0.22,0.22l-0.04,0.09l0.13,0.26c-1.22-0.89-2.71-1.45-4.33-1.51V7.95z M24.82,10.49
		c1.75,0.08,3.34,0.78,4.56,1.89l-1.34,1.34c-0.87-0.77-1.99-1.26-3.22-1.34V10.49z M24.82,13.05c0.98,0.07,1.88,0.44,2.6,1.02
		c-0.03,0.01-0.07,0.03-0.09,0.05c-0.03,0.03-0.06,0.05-0.09,0.06c-0.03,0.01-0.04,0.05-0.04,0.1c0,0.07,0.1,0.1,0.16,0.11
		l-0.51,0.51v-0.01c-0.09,0.05-0.15,0.1-0.19,0.14c-0.12,0.06-0.19,0.11-0.2,0.16c-0.01,0.03-0.03,0.08-0.04,0.15l-0.17,0.17
		c-0.02,0.01-0.05,0.01-0.07,0.01c-0.06,0-0.15-0.06-0.27-0.18c-0.12-0.12-0.21-0.18-0.27-0.18c-0.09,0-0.16,0.02-0.2,0.07
		c-0.04,0.04-0.1,0.05-0.16,0.02c-0.06-0.06,0.01-0.13,0.2-0.2c0.19-0.07,0.32-0.13,0.38-0.16c0.24-0.18,0.36-0.41,0.36-0.7
		c0-0.15-0.06-0.22-0.18-0.22l-0.13,0.13c-0.12,0.06-0.22,0.13-0.31,0.21c-0.09,0.08-0.16,0.15-0.22,0.21
		c-0.06-0.03-0.15-0.04-0.27-0.04h-0.26c0,0-0.01,0.01-0.01,0.01V13.05z M24.43,16.05c0.02,0.04,0.05,0.07,0.08,0.07
		c0.08,0,0.16,0.02,0.21,0.07c0.05,0.04,0.13,0.05,0.22,0.03c0.01,0.03,0.02,0.06,0.05,0.08c0.03,0.06,0.08,0.09,0.17,0.09
		c0.02,0.02,0.04,0.04,0.05,0.06c0.01,0.02,0.02,0.03,0.03,0.05c0.02,0.04,0.04,0.1,0.07,0.16c0.01,0,0.01,0,0.02,0.01
		c0.01,0.01,0.01,0.02,0.02,0.04c0.06,0.03,0.11,0.04,0.14,0.02c0.03-0.01,0.06,0,0.11,0.01c0,0.03,0,0.06,0.01,0.1h0.03
		c0,0.03,0.01,0.07,0.02,0.11c0.02,0.07,0.02,0.14,0.02,0.19v0.09c0,0.03-0.02,0.04-0.05,0.04c-0.09,0.09-0.14,0.17-0.14,0.26
		c0,0.06,0.04,0.08,0.12,0.06c0.08-0.01,0.13,0.01,0.16,0.06c0.06,0.06,0.09,0.14,0.09,0.26v0.39c0,0.06,0.02,0.1,0.07,0.13
		C25.98,18.45,26,18.47,26,18.5c0,0.09-0.01,0.19-0.04,0.32c-0.03,0.13-0.07,0.22-0.13,0.28c-0.03,0.03-0.11,0.03-0.22,0
		c-0.12-0.03-0.22-0.04-0.32-0.04c-0.06,0-0.12,0.09-0.18,0.26c-0.06,0.15-0.11,0.28-0.14,0.39c-0.03,0.12-0.09,0.17-0.18,0.17
		c-0.06,0-0.12,0.01-0.18,0.02c-0.01,0-0.02,0-0.03,0l-0.15,0.24l-0.05,0.06c-0.51-0.03-0.97-0.25-1.32-0.58l0.23-0.23
		c0.15-0.02,0.3-0.06,0.42-0.1c0.03-0.01,0.05-0.02,0.08-0.03c0.23-0.1,0.21-0.29,0.33-0.49c0.08-0.13,0.29-0.28,0.12-0.43
		c0.2-0.34-0.71-0.35-0.87-0.27c-0.19,0.09-0.07,0.29-0.17,0.44c-0.05,0.08-0.14,0.08-0.21,0.13c-0.09,0.07-0.29,0.29-0.33,0.45l0,0
		c-0.06-0.11-0.11-0.22-0.15-0.33c0.01,0,0.02,0,0.03,0.01c-0.02-0.03-0.02-0.06-0.01-0.07h0.04v0.04c0.12,0.03,0.19,0.03,0.22,0
		c0.03-0.09,0.05-0.17,0.07-0.24c0.01-0.07,0.09-0.24,0.24-0.51c-0.06-0.03-0.09-0.07-0.1-0.13c-0.01-0.06-0.05-0.07-0.1-0.04
		c-0.06,0.03-0.08,0.07-0.08,0.13c0,0.06-0.03,0.12-0.08,0.18c-0.06,0.06-0.11,0.09-0.17,0.09c0-0.09-0.04-0.13-0.13-0.13
		c-0.06,0-0.12,0.03-0.17,0.09c-0.06,0-0.2,0.01-0.41,0.04c-0.22,0.03-0.36,0.03-0.41,0c-0.06-0.06,0.01-0.12,0.22-0.17
		c-0.03-0.18,0.04-0.35,0.22-0.53c0.12,0.06,0.2,0.09,0.26,0.09l0.09-0.09h0.04c0.09,0,0.14,0.07,0.15,0.22
		c0.01,0.15,0.05,0.22,0.11,0.22c0.06,0,0.12-0.03,0.17-0.09v-0.22c0.06-0.23,0.1-0.4,0.13-0.49v-0.13
		c0.04-0.09,0.08-0.16,0.14-0.21h0.05c0.06-0.05,0.13-0.08,0.2-0.09c0.06-0.12,0.09-0.21,0.09-0.27c0.09-0.03,0.24-0.09,0.46-0.18
		c0.22-0.09,0.33-0.18,0.33-0.27c0-0.01,0-0.02,0-0.02c0.1-0.03,0.19-0.04,0.3-0.05C24.39,16,24.41,16.04,24.43,16.05z M24.16,5.3
		v1.99c-2.63,0.08-5.02,1.14-6.82,2.83l-1.41-1.41C18.09,6.67,20.98,5.38,24.16,5.3z M15.46,9.18l1.41,1.41
		c-1.69,1.8-2.75,4.19-2.83,6.82h-1.99C12.13,14.22,13.42,11.34,15.46,9.18z"/>
	<g>
		<path id="XMLID_17_" class="st1" d="M345.29,16.06c0.36-0.62,0.8-1.18,1.31-1.69l-4.3-4.71c-1.08,1.03-2,2.23-2.73,3.55
			L345.29,16.06z"/>
		<path id="XMLID_16_" class="st2" d="M355.82,12.74c0.65,0.3,1.26,0.68,1.8,1.13l4.31-4.7c-1.13-0.98-2.42-1.79-3.82-2.38
			L355.82,12.74z"/>
		<path id="XMLID_15_" class="st3" d="M365.69,14.15L359.98,17c0.27,0.64,0.47,1.31,0.57,2.02l6.35-0.6
			C366.71,16.91,366.3,15.48,365.69,14.15"/>
		<path id="XMLID_14_" class="st4" d="M359.57,16.17l5.71-2.85c-0.71-1.31-1.61-2.51-2.67-3.54l-4.31,4.7
			C358.79,14.99,359.22,15.56,359.57,16.17"/>
		<path id="XMLID_13_" class="st5" d="M344.15,20.23c0-0.13,0-0.26,0.01-0.38l-6.35-0.57c-0.02,0.32-0.03,0.63-0.03,0.95
			c0,1.22,0.15,2.4,0.43,3.53l6.14-1.76C344.22,21.43,344.15,20.84,344.15,20.23"/>
		<path id="XMLID_12_" class="st6" d="M358.77,25.45c-0.45,0.55-0.97,1.04-1.55,1.46l3.35,5.43c1.24-0.84,2.35-1.87,3.29-3.05
			L358.77,25.45z"/>
		<path id="XMLID_11_" class="st7" d="M360.64,20.23c0,0.6-0.06,1.19-0.19,1.75l6.14,1.76c0.28-1.13,0.43-2.3,0.43-3.52
			c0-0.3-0.01-0.6-0.03-0.9l-6.35,0.6C360.63,20.03,360.64,20.13,360.64,20.23"/>
		<path id="XMLID_10_" class="st8" d="M346.12,25.58l-5.08,3.86c0.94,1.16,2.06,2.18,3.32,3l3.35-5.43
			C347.13,26.61,346.59,26.12,346.12,25.58"/>
		<path id="XMLID_9_" class="st9" d="M344.25,18.93c0.11-0.72,0.32-1.4,0.61-2.05l-5.71-2.84c-0.63,1.34-1.06,2.8-1.26,4.32
			L344.25,18.93z"/>
		<path id="XMLID_8_" class="st10" d="M359.79,32.84l-3.35-5.42c-0.61,0.34-1.26,0.61-1.96,0.79l1.18,6.28
			C357.14,34.14,358.53,33.58,359.79,32.84"/>
		<path id="XMLID_7_" class="st11" d="M360.2,22.87c-0.22,0.65-0.52,1.27-0.89,1.84l5.1,3.84c0.83-1.19,1.48-2.51,1.93-3.92
			L360.2,22.87z"/>
		<path id="XMLID_6_" class="st12" d="M353.58,28.39c-0.39,0.06-0.78,0.09-1.19,0.09c-0.32,0-0.64-0.02-0.96-0.06l-1.18,6.28
			c0.7,0.1,1.41,0.16,2.14,0.16c0.81,0,1.6-0.07,2.37-0.19L353.58,28.39z"/>
		<path id="XMLID_5_" class="st13" d="M352.92,12.01c0.71,0.05,1.39,0.18,2.04,0.39l2.29-5.96c-1.36-0.48-2.82-0.77-4.33-0.82V12.01
			z"/>
		<path id="XMLID_4_" class="st14" d="M350.53,28.26c-0.71-0.17-1.39-0.43-2.02-0.77l-3.36,5.43c1.29,0.74,2.7,1.29,4.2,1.61
			L350.53,28.26z"/>
		<path id="XMLID_3_" class="st15" d="M349.92,12.37c0.66-0.21,1.36-0.34,2.08-0.37V5.62c-1.53,0.04-3.01,0.32-4.39,0.8
			L349.92,12.37z"/>
		<path id="XMLID_2_" class="st16" d="M345.57,24.84c-0.4-0.6-0.74-1.25-0.97-1.95l-6.13,1.76c0.46,1.46,1.15,2.83,2.03,4.05
			L345.57,24.84z"/>
		<path id="XMLID_1_" class="st17" d="M347.29,13.77c0.54-0.43,1.13-0.79,1.77-1.07l-2.31-5.95c-1.37,0.58-2.64,1.36-3.76,2.3
			L347.29,13.77z"/>
	</g>
	<rect x="263.89" y="5.93" class="st5" width="66.89" height="28.61"/>
	<g>
		<polygon class="st18" points="311.79,34.54 330.78,20.23 311.79,5.93 		"/>
		<polygon class="st18" points="292.38,34.54 311.36,20.23 292.38,5.93 		"/>
	</g>
	<g>
		<path d="M51.86,32.3c-1.22-1.64-1.83-3.96-1.83-6.95V15.28c0-3.09,0.6-5.44,1.81-7.04c1.21-1.6,3.29-2.4,6.24-2.4
			c2.76,0,4.73,0.7,5.89,2.09c1.16,1.39,1.74,3.4,1.74,6.03v2.37h-4.95v-2.44c0-1-0.05-1.78-0.14-2.35
			c-0.09-0.57-0.33-1.03-0.71-1.39c-0.38-0.36-0.98-0.54-1.79-0.54c-0.84,0-1.46,0.19-1.88,0.58c-0.42,0.38-0.69,0.89-0.82,1.53
			c-0.13,0.64-0.19,1.47-0.19,2.49v12.23c0,1.6,0.21,2.76,0.63,3.47c0.42,0.71,1.17,1.06,2.27,1.06c0.79,0,1.38-0.19,1.76-0.56
			c0.38-0.37,0.63-0.87,0.73-1.48c0.1-0.62,0.16-1.43,0.16-2.46v-2.54h4.95v2.27c0,2.72-0.57,4.83-1.71,6.33
			c-1.14,1.5-3.11,2.25-5.92,2.25C55.16,34.76,53.08,33.94,51.86,32.3z"/>
		<path d="M68.04,6.15h5.12v24.71h6.87v3.52H68.04V6.15z"/>
		<path d="M82.15,6.15h5.09v28.23h-5.09V6.15z"/>
		<path d="M91.32,6.15h5.33l4.01,19.55l4.15-19.55H110l0.52,28.23h-3.83l-0.42-19.62l-4.01,19.62h-3.1l-4.08-19.69L94.7,34.38h-3.87
			L91.32,6.15z"/>
		<path d="M118.07,6.15h5.51l5.65,28.23h-4.77l-1.12-6.52h-4.91l-1.15,6.52h-4.84L118.07,6.15z M122.77,24.58l-1.92-11.85
			l-1.92,11.85H122.77z"/>
		<path d="M132.49,9.95h-4.7v-3.8h14.46v3.8h-4.63v24.43h-5.12V9.95z"/>
		<path d="M143.94,6.15h11.85v3.62h-6.73v8.12h5.3v3.59h-5.3v9.38h6.8v3.52h-11.92V6.15z"/>
		<path d="M167.7,6.15h5.51l5.65,28.23h-4.77l-1.12-6.52h-4.91l-1.15,6.52h-4.84L167.7,6.15z M172.41,24.58l-1.92-11.85l-1.92,11.85
			H172.41z"/>
		<path d="M181.75,32.3c-1.22-1.64-1.83-3.96-1.83-6.95V15.28c0-3.09,0.6-5.44,1.81-7.04c1.21-1.6,3.29-2.4,6.24-2.4
			c2.76,0,4.73,0.7,5.89,2.09c1.16,1.39,1.74,3.4,1.74,6.03v2.37h-4.95v-2.44c0-1-0.05-1.78-0.14-2.35
			c-0.09-0.57-0.33-1.03-0.71-1.39c-0.38-0.36-0.98-0.54-1.79-0.54c-0.84,0-1.46,0.19-1.88,0.58c-0.42,0.38-0.69,0.89-0.82,1.53
			c-0.13,0.64-0.19,1.47-0.19,2.49v12.23c0,1.6,0.21,2.76,0.63,3.47c0.42,0.71,1.17,1.06,2.27,1.06c0.79,0,1.38-0.19,1.76-0.56
			c0.38-0.37,0.63-0.87,0.73-1.48c0.1-0.62,0.16-1.43,0.16-2.46v-2.54h4.95v2.27c0,2.72-0.57,4.83-1.71,6.33
			c-1.14,1.5-3.11,2.25-5.92,2.25C185.05,34.76,182.97,33.94,181.75,32.3z"/>
		<path d="M201.44,9.95h-4.7v-3.8h14.46v3.8h-4.63v24.43h-5.12V9.95z"/>
		<path d="M212.95,6.15h5.09v28.23h-5.09V6.15z"/>
		<path d="M222.49,32.41c-1.25-1.57-1.88-3.86-1.88-6.88V14.93c0-3,0.63-5.26,1.88-6.8s3.35-2.3,6.27-2.3c2.9,0,4.98,0.77,6.24,2.3
			c1.25,1.53,1.88,3.8,1.88,6.8v10.59c0,3-0.63,5.29-1.9,6.87c-1.27,1.58-3.34,2.37-6.22,2.37
			C225.84,34.76,223.74,33.97,222.49,32.41z M231.06,29.88c0.4-0.72,0.59-1.76,0.59-3.14v-13c0-1.37-0.19-2.41-0.58-3.1
			c-0.38-0.7-1.16-1.05-2.32-1.05c-1.16,0-1.94,0.35-2.33,1.06c-0.4,0.71-0.59,1.74-0.59,3.08v13c0,1.37,0.2,2.42,0.59,3.14
			c0.4,0.72,1.17,1.08,2.33,1.08C229.9,30.96,230.67,30.6,231.06,29.88z"/>
		<path d="M239.36,6.15h3.59l6.87,16.1V6.15h4.25v28.23h-3.42l-6.9-16.87v16.87h-4.39V6.15z"/>
	</g>
</g>
</svg>
